<!-- Generator: Adobe Illustrator 19.0.0, SVG Export Plug-In  -->
<svg version="1.1"
	 xmlns="http://www.w3.org/2000/svg" xmlns:xlink="http://www.w3.org/1999/xlink" xmlns:a="http://ns.adobe.com/AdobeSVGViewerExtensions/3.0/"
	 x="0px" y="0px" width="317.549px" height="475px" viewBox="0 0 317.549 475" style="enable-background:new 0 0 317.549 475;"
	 xml:space="preserve">
<defs>
</defs>
<path id="XMLID_15_" d="M110.938,475C49.767,475,0,425.233,0,364.062V12.5C0,5.597,5.597,0,12.5,0h194.111
	c61.171,0,110.938,49.767,110.938,110.938s-49.767,110.938-110.938,110.938h-7.807c47.575,29.505,79.32,82.207,79.32,142.188
	c0,38.747-13.561,76.517-38.183,106.352c-4.394,5.325-12.273,6.08-17.597,1.685c-5.325-4.394-6.079-12.272-1.685-17.597
	c20.935-25.367,32.464-57.485,32.464-90.439c0-78.402-63.785-142.188-142.188-142.188c-6.903,0-12.5-5.597-12.5-12.5
	s5.597-12.5,12.5-12.5h95.674c47.386,0,85.938-38.552,85.938-85.938S253.997,25,206.611,25H25v339.062
	C25,411.448,63.552,450,110.938,450s85.938-38.552,85.938-85.938s-38.552-85.938-85.938-85.938c-6.903,0-12.5-5.597-12.5-12.5
	s5.597-12.5,12.5-12.5c61.171,0,110.938,49.767,110.938,110.938S172.108,475,110.938,475z"/>
</svg>
