<?xml version="1.0" encoding="utf-8"?>
<!-- Generator: Adobe Illustrator 19.0.0, SVG Export Plug-In . SVG Version: 6.00 Build 0)  -->
<svg version="1.1" xmlns="http://www.w3.org/2000/svg" xmlns:xlink="http://www.w3.org/1999/xlink" x="0px" y="0px"
	 viewBox="-318.7 63 475 475" style="enable-background:new -318.7 63 475 475;" xml:space="preserve">
<style type="text/css">
	.st0{fill:#FFFFFF;}
</style>
<g id="Layer_2">
	<rect x="-318.7" y="63" class="st0" width="475" height="475"/>
</g>
<g id="Layer_1">
	<path id="XMLID_15_" d="M-121,498c-50.9,0-92.3-41.4-92.3-92.3V113.4c0-5.7,4.7-10.4,10.4-10.4h161.4c50.9,0,92.3,41.4,92.3,92.3
		s-41.4,92.3-92.3,92.3h-6.5c39.6,24.5,66,68.4,66,118.2c0,32.2-11.3,63.6-31.8,88.4c-3.7,4.4-10.2,5.1-14.6,1.4
		c-4.4-3.7-5.1-10.2-1.4-14.6c17.4-21.1,27-47.8,27-75.2c0-65.2-53-118.2-118.2-118.2c-5.7,0-10.4-4.7-10.4-10.4s4.7-10.4,10.4-10.4
		h79.6c39.4,0,71.5-32.1,71.5-71.5S-2,123.8-41.4,123.8h-151v282c0,39.4,32.1,71.5,71.5,71.5s71.5-32.1,71.5-71.5
		s-32.1-71.5-71.5-71.5c-5.7,0-10.4-4.7-10.4-10.4c0-5.7,4.7-10.4,10.4-10.4c50.9,0,92.3,41.4,92.3,92.3S-70.1,498-121,498z"/>
</g>
</svg>
