<?xml version="1.0" encoding="utf-8"?>
<!-- Generator: Adobe Illustrator 19.0.0, SVG Export Plug-In . SVG Version: 6.00 Build 0)  -->
<svg version="1.1" xmlns="http://www.w3.org/2000/svg" xmlns:xlink="http://www.w3.org/1999/xlink" x="0px" y="0px"
	 viewBox="-318.7 63 475 475" style="enable-background:new -318.7 63 475 475;" xml:space="preserve">
<style type="text/css">
	.st0{fill:#FFFFFF;}
</style>
<g id="Layer_2">
	<rect x="-318.7" y="63" class="st0" width="475" height="475"/>
</g>
<g id="Layer_1">
	<path id="XMLID_15_" d="M-115.8,472c-44.2,0-80.1-35.9-80.1-80.1V138c0-5,4-9,9-9h140.2c44.2,0,80.1,35.9,80.1,80.1
		s-35.9,80.1-80.1,80.1h-5.6C-18,310.5,5,348.6,5,391.9c0,28-9.8,55.3-27.6,76.8c-3.2,3.8-8.9,4.4-12.7,1.2
		c-3.8-3.2-4.4-8.9-1.2-12.7c15.1-18.3,23.4-41.5,23.4-65.3c0-56.6-46.1-102.7-102.7-102.7c-5,0-9-4-9-9c0-5,4-9,9-9h69.1
		c34.2,0,62.1-27.8,62.1-62.1s-27.8-62.1-62.1-62.1h-131.1v244.8c0,34.2,27.8,62.1,62.1,62.1s62.1-27.8,62.1-62.1
		s-27.8-62.1-62.1-62.1c-5,0-9-4-9-9s4-9,9-9c44.2,0,80.1,35.9,80.1,80.1S-71.6,472-115.8,472z"/>
</g>
</svg>
